<svg data-v-423bf9ae="" xmlns="http://www.w3.org/2000/svg" viewBox="0 0 298.97785768966094 60" class="font"><!----><!----><defs data-v-423bf9ae=""><linearGradient data-v-423bf9ae="" gradientTransform="rotate(25)" id="a65208c4-aa81-4b8c-8132-ca7b3d74451f" x1="0%" y1="0%" x2="100%" y2="0%"><stop data-v-423bf9ae="" offset="0%" style="stop-color: rgb(40, 139, 88); stop-opacity: 1;"></stop><stop data-v-423bf9ae="" offset="100%" style="stop-color: rgb(21, 34, 241); stop-opacity: 1;"></stop></linearGradient></defs><g data-v-423bf9ae="" id="03120b51-6d5c-46c5-a8bb-bb38726036aa" fill="url(#a65208c4-aa81-4b8c-8132-ca7b3d74451f)" transform="matrix(6.507592002417078,0,0,6.507592002417078,-0.8971953504202475,-23.101951059855878)"><path d="M3.27 3.60L3.27 3.60L3.27 3.60Q2.65 3.74 2.13 4.17L2.13 4.17L2.13 4.17Q1.61 4.59 1.24 5.07L1.24 5.07L1.24 5.07Q0.88 5.54 0.86 6.29L0.86 6.29L0.86 6.29Q0.84 7.04 1.35 7.59L1.35 7.59L1.35 7.59Q1.85 8.14 3.29 8.56L3.29 8.56L3.29 8.56Q4.72 8.98 5.12 9.73L5.12 9.73L5.12 9.73Q5.52 10.49 5.05 11.05L5.05 11.05L5.05 11.05Q4.57 11.60 3.77 11.64L3.77 11.64L3.77 11.64Q2.96 11.68 2.28 11.15L2.28 11.15L2.28 11.15Q1.59 10.62 1.40 9.95L1.40 9.95L1.40 9.95Q1.21 9.27 1.23 8.95L1.23 8.95L0.17 9.98L0.17 9.98Q0.03 10.52 0.50 11.21L0.50 11.21L0.50 11.21Q0.96 11.91 1.79 12.37L1.79 12.37L1.79 12.37Q2.62 12.84 3.62 12.71L3.62 12.71L3.62 12.71Q4.61 12.59 5.50 11.34L5.50 11.34L5.50 11.34Q6.39 10.09 6.37 9.38L6.37 9.38L6.37 9.38Q6.36 8.66 5.83 8.12L5.83 8.12L5.83 8.12Q5.30 7.58 3.77 7.17L3.77 7.17L3.77 7.17Q2.23 6.76 2.08 5.92L2.08 5.92L2.08 5.92Q1.93 5.08 2.55 4.85L2.55 4.85L2.55 4.85Q3.17 4.61 3.96 4.96L3.96 4.96L3.96 4.96Q4.76 5.30 4.79 5.68L4.79 5.68L5.73 4.92L5.73 4.92Q5.56 4.22 4.72 3.84L4.72 3.84L4.72 3.84Q3.89 3.46 3.27 3.60ZM8.33 3.55L7.01 4.01L7.01 12.72L8.42 12.24L8.42 9.77L8.42 9.77Q8.68 9.55 9.02 9.80L9.02 9.80L9.02 9.80Q9.36 10.06 10.15 11.33L10.15 11.33L10.15 11.33Q10.94 12.60 11.44 12.74L11.44 12.74L12.50 11.69L12.50 11.69Q11.98 11.50 11.26 10.34L11.26 10.34L11.26 10.34Q10.53 9.17 9.85 8.96L9.85 8.96L9.85 8.96Q10.61 8.52 11.23 7.87L11.23 7.87L11.23 7.87Q11.85 7.22 11.63 6.32L11.63 6.32L10.24 6.99L10.24 6.99Q10.31 7.82 9.83 8.38L9.83 8.38L9.83 8.38Q9.35 8.93 8.33 9.29L8.33 9.29L8.33 3.55ZM14.59 3.55L13.33 4.14L13.33 5.58L14.59 5.06L14.59 3.55ZM14.60 6.54L13.29 7.02L13.29 12.67L14.60 12.21L14.60 6.54ZM17.21 6.38L15.90 6.89L15.90 12.73L17.27 12.15L17.27 8.05L17.27 8.05Q17.94 7.22 18.92 7.37L18.92 7.37L18.92 7.37Q19.91 7.53 19.87 8.48L19.87 8.48L19.87 12.77L21.21 12.18L21.21 8.25L21.21 8.25Q21.30 7.35 20.64 6.87L20.64 6.87L20.64 6.87Q19.98 6.40 19.01 6.56L19.01 6.56L19.01 6.56Q18.05 6.72 17.21 7.73L17.21 7.73L17.21 6.38ZM24.94 3.60L24.94 3.60L24.94 3.60Q24.32 3.74 23.80 4.17L23.80 4.17L23.80 4.17Q23.28 4.59 22.91 5.07L22.91 5.07L22.91 5.07Q22.55 5.54 22.53 6.29L22.53 6.29L22.53 6.29Q22.51 7.04 23.02 7.59L23.02 7.59L23.02 7.59Q23.52 8.14 24.96 8.56L24.96 8.56L24.96 8.56Q26.39 8.98 26.79 9.73L26.79 9.73L26.79 9.73Q27.19 10.49 26.72 11.05L26.72 11.05L26.72 11.05Q26.24 11.60 25.44 11.64L25.44 11.64L25.44 11.64Q24.63 11.68 23.95 11.15L23.95 11.15L23.95 11.15Q23.26 10.62 23.07 9.95L23.07 9.95L23.07 9.95Q22.88 9.27 22.90 8.95L22.90 8.95L21.84 9.98L21.84 9.98Q21.70 10.52 22.17 11.21L22.17 11.21L22.17 11.21Q22.63 11.91 23.46 12.37L23.46 12.37L23.46 12.37Q24.29 12.84 25.29 12.71L25.29 12.71L25.29 12.71Q26.28 12.59 27.17 11.34L27.17 11.34L27.17 11.34Q28.06 10.09 28.04 9.38L28.04 9.38L28.04 9.38Q28.03 8.66 27.50 8.12L27.50 8.12L27.50 8.12Q26.97 7.58 25.44 7.17L25.44 7.17L25.44 7.17Q23.90 6.76 23.75 5.92L23.75 5.92L23.75 5.92Q23.60 5.08 24.22 4.85L24.22 4.85L24.22 4.85Q24.83 4.61 25.63 4.96L25.63 4.96L25.63 4.96Q26.43 5.30 26.46 5.68L26.46 5.68L27.40 4.92L27.40 4.92Q27.23 4.22 26.39 3.84L26.39 3.84L26.39 3.84Q25.56 3.46 24.94 3.60ZM31.94 6.50L31.94 6.50L31.94 6.50Q30.60 6.27 29.67 7.11L29.67 7.11L29.67 7.11Q28.75 7.96 28.56 9.11L28.56 9.11L28.56 9.11Q28.37 10.27 28.79 11.14L28.79 11.14L28.79 11.14Q29.20 12.02 29.91 12.37L29.91 12.37L29.91 12.37Q30.61 12.73 31.33 12.74L31.33 12.74L31.33 12.74Q32.04 12.76 32.70 12.16L32.70 12.16L32.70 12.16Q33.37 11.57 33.81 10.54L33.81 10.54L33.71 10.47L33.71 10.47Q32.78 11.42 31.91 11.47L31.91 11.47L31.91 11.47Q31.04 11.52 30.49 11.17L30.49 11.17L30.49 11.17Q29.93 10.82 29.59 10.13L29.59 10.13L29.59 10.13Q29.24 9.44 29.45 8.56L29.45 8.56L29.45 8.56Q29.65 7.67 30.30 7.39L30.30 7.39L30.30 7.39Q30.95 7.12 31.56 7.45L31.56 7.45L31.56 7.45Q32.16 7.78 32.42 8.78L32.42 8.78L33.61 7.99L33.61 7.99Q33.29 6.73 31.94 6.50ZM37.54 6.43L37.54 6.43L37.54 6.43Q36.62 6.36 35.60 6.88L35.60 6.88L35.60 6.88Q34.59 7.40 34.71 8.65L34.71 8.65L36.28 7.95L36.28 7.95Q36.16 7.10 36.91 6.96L36.91 6.96L36.91 6.96Q37.65 6.82 38.07 7.21L38.07 7.21L38.07 7.21Q38.49 7.61 38.42 8.80L38.42 8.80L38.42 8.80Q37.97 8.50 37.35 8.42L37.35 8.42L37.35 8.42Q36.73 8.33 35.72 8.85L35.72 8.85L35.72 8.85Q34.71 9.37 34.46 10.38L34.46 10.38L34.46 10.38Q34.21 11.38 34.98 12.06L34.98 12.06L34.98 12.06Q35.76 12.73 36.48 12.70L36.48 12.70L36.48 12.70Q37.21 12.67 37.57 12.39L37.57 12.39L37.57 12.39Q37.93 12.10 38.45 11.57L38.45 11.57L38.45 11.57Q38.44 12.44 38.64 12.76L38.64 12.76L40.00 12.04L40.00 12.04Q39.66 11.63 39.72 11.02L39.72 11.02L39.72 8.16L39.72 8.16Q39.75 7.49 39.10 6.99L39.10 6.99L39.10 6.99Q38.45 6.50 37.54 6.43ZM38.47 9.32L38.46 9.68L38.46 11.18L38.46 11.18Q37.30 12.11 36.35 11.55L36.35 11.55L36.35 11.55Q35.40 10.99 35.28 10.16L35.28 10.16L35.28 10.16Q35.15 9.34 36.10 9.31L36.10 9.31L36.10 9.31Q37.04 9.28 37.84 10.00L37.84 10.00L38.47 9.32ZM42.08 6.38L40.76 6.89L40.76 12.73L42.14 12.15L42.14 8.05L42.14 8.05Q42.80 7.22 43.78 7.37L43.78 7.37L43.78 7.37Q44.77 7.53 44.73 8.48L44.73 8.48L44.73 12.77L46.07 12.18L46.07 8.25L46.07 8.25Q46.16 7.35 45.50 6.87L45.50 6.87L45.50 6.87Q44.84 6.40 43.88 6.56L43.88 6.56L43.88 6.56Q42.91 6.72 42.07 7.73L42.07 7.73L42.08 6.38Z"></path></g><!----><!----></svg>